<svg xmlns="http://www.w3.org/2000/svg" viewBox="0 0 256 256" role="img" aria-label="Global Water Reservoirs">
  <defs>
    <linearGradient id="water" x1="52" x2="204" y1="192" y2="64" gradientUnits="userSpaceOnUse">
      <stop stop-color="#0b74b8"/>
      <stop offset="1" stop-color="#19b5a6"/>
    </linearGradient>
    <linearGradient id="sky" x1="48" x2="208" y1="40" y2="216" gradientUnits="userSpaceOnUse">
      <stop stop-color="#eaf7ff"/>
      <stop offset="1" stop-color="#c8f2e9"/>
    </linearGradient>
  </defs>
  <circle cx="128" cy="128" r="120" fill="url(#sky)"/>
  <path fill="#134e6f" d="M42 154c15-9 30-9 45 0 15 8 30 8 45 0 15-9 30-9 45 0 12 7 24 8 37 3v34c-16 6-31 4-46-5-15-8-30-8-45 0-15 9-30 9-45 0-15-8-30-8-45 0-12 7-24 8-37 3v-35z" opacity=".18"/>
  <path fill="url(#water)" d="M42 140c15-9 30-9 45 0 15 8 30 8 45 0 15-9 30-9 45 0 12 7 24 8 37 3v49c-16 12-31 17-46 17H88c-17 0-32-5-46-16v-53z"/>
  <path fill="#0b3a55" d="M71 81c0-29 57-62 57-62s57 33 57 62c0 32-25 57-57 57S71 113 71 81z"/>
  <path fill="#ffffff" d="M128 44c-13 10-35 30-35 47 0 20 15 35 35 35s35-15 35-35c0-17-22-37-35-47z" opacity=".92"/>
  <path fill="#19b5a6" d="M101 99c9-5 18-5 27 0 9 5 18 5 27 0v17c-9 6-18 8-27 8s-18-2-27-8V99z"/>
  <rect width="132" height="12" x="62" y="168" fill="#ffffff" opacity=".92" rx="6"/>
  <rect width="35" height="12" x="62" y="168" fill="#0b3a55" opacity=".85" rx="6"/>
  <rect width="22" height="60" x="54" y="118" fill="#0b3a55" opacity=".88" rx="8"/>
  <rect width="22" height="76" x="180" y="102" fill="#0b3a55" opacity=".88" rx="8"/>
  <path fill="#ffffff" d="M60 132h10v8H60zm0 18h10v8H60zm126-16h10v8h-10zm0 18h10v8h-10z" opacity=".75"/>
</svg>
